# xmcd
# 
# Track frame offsets:
#     150
#     18390
#     36050
#     48655
#     64772
#     81905
#     95222
#     110512
#     128117
#     146540
#     166095
#     178735
# 
# Disc length: 2603
# 
# Revision: 17
# Processed by: cddbd v1.5.2PL0 Copyright (c) Steve Scherf et al.
# Submitted via: fre:ac v1.0.17
# 
DISCID=a40a290c
DTITLE=Trisha Yearwood - Songbook A Collection Of Hits
DYEAR=1997
DGENRE=Country
TTITLE0=How Do I Live
TTITLE1=The Song Remembers When
TTITLE2=The Wrong Side Of Memphis
TTITLE3=In Another's Eyes
TTITLE4=The Woman Before Me
TTITLE5=Perfect Love
TTITLE6=Thinkin' About You
TTITLE7=Down On My Knees
TTITLE8=She's In Love With The Boy
TTITLE9=Walkaway Joe
TTITLE10=XXX's And OOO's (An American Girl)
TTITLE11=Like We Never Had A Broken Heart
EXTD=
EXTT0=
EXTT1=
EXTT2=
EXTT3=
EXTT4=
EXTT5=
EXTT6=
EXTT7=
EXTT8=
EXTT9=
EXTT10=
EXTT11=
PLAYORDER=
